# xmcd
#
# Track frame offsets:
#	150
#	13683
#	28399
#	43447
#	60495
#	75244
#	94845
#	109423
#	124278
#	144198
#
# Disc length: 2149
#
# Revision: 1
# Processed by: cddbd v1.5.1PL0 Copyright (c) Steve Scherf et al.
# Submitted via: dBpowerAMP V4.0
# Normalized: r0:TRMNUM
#
DISCID=8608630a
DTITLE=Gilberto e Gilmar - Gilberto e Gilmar 2001
DYEAR=1900
DGENRE=Sertaneja
TTITLE0=Nois nao vive sem muie - 3,00
TTITLE1=Eu sou do meio - 3,16
TTITLE2=Diz - 3,20
TTITLE3=Todo tempo e pouco pra te amar - 3,47
TTITLE4=Hoje eu entro na gandaia - 3,16
TTITLE5=Cana caiana - 4,21
TTITLE6=Ta duro - 3,14
TTITLE7=Amor com voce - 3,18
TTITLE8=E Jesus - 4,25
TTITLE9=Faz ela feliz - 3,47
EXTD=
EXTT0=
EXTT1=
EXTT2=
EXTT3=
EXTT4=
EXTT5=
EXTT6=
EXTT7=
EXTT8=
EXTT9=
PLAYORDER=
